<svg width="24" height="22" viewBox="0 0 24 22" fill="none" xmlns="http://www.w3.org/2000/svg">
<path d="M14.5098 19.8105V13.3555C14.5098 13.1276 14.4414 12.9486 14.3047 12.8184C14.1745 12.6816 13.9954 12.6133 13.7676 12.6133H10.2227C10.0013 12.6133 9.81901 12.6816 9.67578 12.8184C9.53906 12.9486 9.4707 13.1276 9.4707 13.3555V19.8105H14.5098ZM3.38672 19.2246V11.4902L11.4141 4.76172C11.8047 4.42969 12.1953 4.42969 12.5859 4.76172L20.6133 11.4902V19.2246C20.6133 19.9082 20.418 20.4388 20.0273 20.8164C19.6432 21.194 19.1094 21.3828 18.4258 21.3828H5.58398C4.89388 21.3828 4.35352 21.194 3.96289 20.8164C3.57878 20.4388 3.38672 19.9082 3.38672 19.2246ZM0.339844 10.5137C0.339844 10.2598 0.44401 10.0482 0.652344 9.87891L10.8281 1.33398C11.1927 1.02799 11.5833 0.875 12 0.875C12.4232 0.875 12.8171 1.02799 13.1816 1.33398L23.3477 9.87891C23.5495 10.0482 23.6504 10.2695 23.6504 10.543C23.6504 10.7773 23.569 10.9629 23.4062 11.0996C23.2435 11.2298 23.0482 11.2949 22.8203 11.2949C22.6836 11.2949 22.5566 11.2624 22.4395 11.1973C22.3288 11.1322 22.2246 11.0605 22.127 10.9824L12.3516 2.7793C12.2409 2.68164 12.1237 2.63281 12 2.63281C11.8828 2.63281 11.7689 2.68164 11.6582 2.7793L1.88281 10.9824C1.77865 11.0605 1.66797 11.1322 1.55078 11.1973C1.4401 11.2624 1.31641 11.2949 1.17969 11.2949C0.919271 11.2949 0.714193 11.2168 0.564453 11.0605C0.414714 10.8978 0.339844 10.7155 0.339844 10.5137ZM18.1621 6.10938V3.66797C18.1621 3.45312 18.2272 3.28385 18.3574 3.16016C18.4876 3.02995 18.6569 2.96484 18.8652 2.96484H19.9102C20.125 2.96484 20.2943 3.02995 20.418 3.16016C20.5482 3.28385 20.6133 3.45312 20.6133 3.66797V8.17969L18.1621 6.10938Z" fill="url(#paint0_linear_187_5)"/>
<defs>
<linearGradient id="paint0_linear_187_5" x1="0" y1="11.9344" x2="24" y2="11.9344" gradientUnits="userSpaceOnUse">
<stop stop-color="#FD4427"/>
<stop offset="0.697541" stop-color="#FE7B45"/>
</linearGradient>
</defs>
</svg>
