<svg width="24" height="16" viewBox="0 0 24 16" fill="none" xmlns="http://www.w3.org/2000/svg">
<path d="M10.9448 15.4692C10.2918 15.4692 9.83252 15.3752 9.56689 15.187C9.3068 15.0044 9.17676 14.7305 9.17676 14.3652C9.17676 13.8285 9.33724 13.2668 9.6582 12.6802C9.97917 12.0881 10.444 11.5347 11.0527 11.02C11.6615 10.4998 12.3947 10.0793 13.2524 9.7583C14.1157 9.4318 15.0841 9.26855 16.1577 9.26855C17.2368 9.26855 18.2052 9.4318 19.063 9.7583C19.9263 10.0793 20.6595 10.4998 21.2627 11.02C21.8714 11.5347 22.3363 12.0881 22.6572 12.6802C22.9837 13.2668 23.147 13.8285 23.147 14.3652C23.147 14.7305 23.0142 15.0044 22.7485 15.187C22.4829 15.3752 22.0236 15.4692 21.3706 15.4692H10.9448ZM16.166 7.78271C15.5684 7.78271 15.0177 7.62223 14.5142 7.30127C14.0106 6.97477 13.6066 6.5376 13.3022 5.98975C12.9979 5.43636 12.8457 4.81657 12.8457 4.13037C12.8457 3.45524 12.9979 2.84652 13.3022 2.3042C13.6121 1.76188 14.0189 1.33301 14.5225 1.01758C15.026 0.702148 15.5739 0.544434 16.166 0.544434C16.7581 0.544434 17.306 0.699382 17.8096 1.00928C18.3132 1.31917 18.7171 1.74528 19.0215 2.2876C19.3258 2.82438 19.478 3.43311 19.478 4.11377C19.478 4.8055 19.3258 5.42806 19.0215 5.98145C18.7171 6.53483 18.3132 6.97477 17.8096 7.30127C17.306 7.62223 16.7581 7.78271 16.166 7.78271ZM1.97998 15.4692C1.45426 15.4692 1.07796 15.3669 0.851074 15.1621C0.62972 14.9629 0.519043 14.6751 0.519043 14.2988C0.519043 13.7288 0.660156 13.1478 0.942383 12.5557C1.22461 11.958 1.62858 11.4102 2.1543 10.9121C2.68555 10.4141 3.32471 10.0129 4.07178 9.7085C4.82438 9.3986 5.66829 9.24365 6.60352 9.24365C7.37826 9.24365 8.06445 9.34603 8.66211 9.55078C9.2653 9.75 9.79932 10.0046 10.2642 10.3145C9.81592 10.6631 9.42025 11.0671 9.07715 11.5264C8.73958 11.9801 8.47396 12.4505 8.28027 12.9375C8.08659 13.4245 7.98421 13.8893 7.97314 14.332C7.96208 14.7747 8.06445 15.1538 8.28027 15.4692H1.97998ZM6.60352 7.97363C6.08887 7.97363 5.61019 7.83252 5.16748 7.55029C4.73031 7.26807 4.37891 6.88623 4.11328 6.40479C3.84766 5.92334 3.71484 5.38656 3.71484 4.79443C3.71484 4.20231 3.84766 3.67106 4.11328 3.20068C4.38444 2.73031 4.73861 2.35954 5.17578 2.08838C5.61849 1.81169 6.0944 1.67334 6.60352 1.67334C7.11816 1.67334 7.59408 1.80892 8.03125 2.08008C8.47396 2.3457 8.82812 2.7137 9.09375 3.18408C9.35938 3.64893 9.49219 4.18018 9.49219 4.77783C9.49219 5.37549 9.35938 5.91781 9.09375 6.40479C8.82812 6.88623 8.47673 7.26807 8.03955 7.55029C7.60238 7.83252 7.1237 7.97363 6.60352 7.97363Z" fill="url(#paint0_linear_187_345)"/>
<defs>
<linearGradient id="paint0_linear_187_345" x1="-0.166992" y1="7.93443" x2="23.833" y2="7.93443" gradientUnits="userSpaceOnUse">
<stop stop-color="#FD4427"/>
<stop offset="0.697541" stop-color="#FE7B45"/>
</linearGradient>
</defs>
</svg>
