<svg width="24" height="19" viewBox="0 0 24 19" fill="none" xmlns="http://www.w3.org/2000/svg">
<path d="M3.21924 18.9434C2.1971 18.9434 1.42887 18.6895 0.914551 18.1816C0.406738 17.6803 0.152832 16.9284 0.152832 15.9258V3.99219C0.152832 2.98307 0.406738 2.22786 0.914551 1.72656C1.42887 1.21875 2.1971 0.964844 3.21924 0.964844H20.1138C21.1424 0.964844 21.9106 1.21875 22.4185 1.72656C22.9263 2.23438 23.1802 2.98958 23.1802 3.99219V15.9258C23.1802 16.9284 22.9263 17.6803 22.4185 18.1816C21.9106 18.6895 21.1424 18.9434 20.1138 18.9434H3.21924ZM3.23877 17.3711H20.0942C20.576 17.3711 20.9471 17.2441 21.2075 16.9902C21.4744 16.7298 21.6079 16.3457 21.6079 15.8379V4.08008C21.6079 3.57227 21.4744 3.18815 21.2075 2.92773C20.9471 2.66732 20.576 2.53711 20.0942 2.53711H3.23877C2.75049 2.53711 2.37614 2.66732 2.11572 2.92773C1.85531 3.18815 1.7251 3.57227 1.7251 4.08008V15.8379C1.7251 16.3457 1.85531 16.7298 2.11572 16.9902C2.37614 17.2441 2.75049 17.3711 3.23877 17.3711ZM5.90479 13.9434C5.70296 13.9434 5.54346 13.8783 5.42627 13.748C5.30908 13.6113 5.25049 13.4323 5.25049 13.2109V7.3125H5.17236L4.05908 8.04492C3.95492 8.11654 3.87354 8.16211 3.81494 8.18164C3.75635 8.20117 3.6945 8.21094 3.62939 8.21094C3.5057 8.21094 3.39827 8.16211 3.30713 8.06445C3.21598 7.9668 3.17041 7.85286 3.17041 7.72266C3.17041 7.53385 3.25505 7.38086 3.42432 7.26367L4.98682 6.20898C5.16911 6.08529 5.3221 6.00065 5.4458 5.95508C5.5695 5.90299 5.71273 5.87695 5.87549 5.87695C6.09684 5.87695 6.26937 5.94206 6.39307 6.07227C6.51676 6.19596 6.57861 6.37826 6.57861 6.61914V13.2109C6.57861 13.4388 6.52002 13.6178 6.40283 13.748C6.28564 13.8783 6.11963 13.9434 5.90479 13.9434ZM8.68799 13.8262C8.49919 13.8262 8.34945 13.7741 8.23877 13.6699C8.12809 13.5658 8.07275 13.429 8.07275 13.2598C8.07275 13.0775 8.14762 12.9082 8.29736 12.752L11.0317 9.8125C11.2791 9.54557 11.507 9.27865 11.7153 9.01172C11.9302 8.73828 12.0376 8.45182 12.0376 8.15234C12.0376 7.80078 11.9139 7.51758 11.6665 7.30273C11.4191 7.08789 11.0968 6.98047 10.6997 6.98047C10.2896 6.98047 9.96403 7.0944 9.72314 7.32227C9.48877 7.54362 9.3195 7.78776 9.21533 8.05469C9.13721 8.17839 9.05257 8.28255 8.96143 8.36719C8.87028 8.44531 8.74984 8.48438 8.6001 8.48438C8.42432 8.48438 8.28434 8.43555 8.18018 8.33789C8.08252 8.23372 8.03369 8.09701 8.03369 7.92773C8.03369 7.86914 8.03695 7.8138 8.04346 7.76172C8.04997 7.70964 8.06299 7.65104 8.08252 7.58594C8.21924 7.09115 8.52848 6.68099 9.01025 6.35547C9.49202 6.02995 10.0356 5.86719 10.6411 5.86719C11.4354 5.86719 12.0701 6.06901 12.5454 6.47266C13.0272 6.86979 13.2681 7.39714 13.2681 8.05469C13.2681 8.52344 13.1444 8.94336 12.897 9.31445C12.6561 9.68555 12.3468 10.0762 11.9692 10.4863L9.94775 12.6543V12.6934H13.0728C13.2355 12.6934 13.369 12.7454 13.4731 12.8496C13.5838 12.9538 13.6392 13.0872 13.6392 13.25C13.6392 13.4193 13.5838 13.5592 13.4731 13.6699C13.369 13.7741 13.2355 13.8262 13.0728 13.8262H8.68799ZM17.145 13.9531C16.6893 13.9531 16.2661 13.8815 15.8755 13.7383C15.4849 13.5951 15.1593 13.3997 14.8989 13.1523C14.6385 12.8984 14.4725 12.6055 14.4009 12.2734C14.3813 12.1562 14.3716 12.0586 14.3716 11.9805C14.3716 11.8047 14.4237 11.6647 14.5278 11.5605C14.632 11.4499 14.7752 11.3945 14.9575 11.3945C15.2375 11.3945 15.436 11.5378 15.5532 11.8242C15.6639 12.1562 15.8592 12.4134 16.1392 12.5957C16.4191 12.7715 16.7609 12.8594 17.1646 12.8594C17.6593 12.8594 18.0565 12.7422 18.356 12.5078C18.6619 12.2734 18.8149 11.9707 18.8149 11.5996C18.8149 11.2155 18.6652 10.9062 18.3657 10.6719C18.0728 10.4375 17.6886 10.3203 17.2134 10.3203H16.6177C16.4679 10.3203 16.341 10.2715 16.2368 10.1738C16.1392 10.0697 16.0903 9.93945 16.0903 9.7832C16.0903 9.62695 16.1392 9.5 16.2368 9.40234C16.341 9.30469 16.4679 9.25586 16.6177 9.25586H17.1548C17.5584 9.25586 17.8905 9.14193 18.1509 8.91406C18.4178 8.6862 18.5513 8.39974 18.5513 8.05469C18.5513 7.71615 18.4276 7.44922 18.1802 7.25391C17.9393 7.05859 17.6105 6.96094 17.1938 6.96094C16.8162 6.96094 16.494 7.05208 16.2271 7.23438C15.9666 7.41016 15.7909 7.66081 15.6997 7.98633C15.6021 8.2793 15.4067 8.42578 15.1138 8.42578C14.938 8.42578 14.7948 8.3737 14.6841 8.26953C14.5799 8.16536 14.5278 8.0319 14.5278 7.86914C14.5278 7.79753 14.5311 7.73893 14.5376 7.69336C14.5441 7.64779 14.5506 7.59245 14.5571 7.52734C14.6743 7.01953 14.9738 6.61589 15.4556 6.31641C15.9373 6.01042 16.5233 5.85742 17.2134 5.85742C17.9686 5.85742 18.5903 6.05273 19.0786 6.44336C19.5669 6.82747 19.811 7.31576 19.811 7.9082C19.811 8.35742 19.6646 8.75456 19.3716 9.09961C19.0851 9.44466 18.7303 9.65299 18.3071 9.72461V9.74414C18.8215 9.79622 19.2446 10.0013 19.5767 10.3594C19.9152 10.7174 20.0845 11.1471 20.0845 11.6484C20.0845 12.3385 19.8143 12.8952 19.2739 13.3184C18.7336 13.7415 18.0239 13.9531 17.145 13.9531Z" fill="url(#paint0_linear_187_133)"/>
<defs>
<linearGradient id="paint0_linear_187_133" x1="-0.333496" y1="9.93443" x2="23.6665" y2="9.93443" gradientUnits="userSpaceOnUse">
<stop stop-color="#FD4427"/>
<stop offset="0.697541" stop-color="#FE7B45"/>
</linearGradient>
</defs>
</svg>
